<mxfile host="app.diagrams.net" modified="2023-11-08T22:14:53.662Z" agent="Mozilla/5.0 (Windows NT 10.0; Win64; x64) AppleWebKit/537.36 (KHTML, like Gecko) Chrome/119.0.0.0 Safari/537.36" etag="E4tPn3Gyd8tz6GZlztRt" version="22.1.0" type="github">
  <diagram name="第 1 页" id="eUHCqphNc-ZG55k6JqVS">
    <mxGraphModel dx="420" dy="232" grid="1" gridSize="10" guides="1" tooltips="1" connect="1" arrows="1" fold="1" page="1" pageScale="1" pageWidth="827" pageHeight="1169" math="0" shadow="0">
      <root>
        <mxCell id="0" />
        <mxCell id="1" parent="0" />
        <mxCell id="gzxq4vjlK3jYFN7eGjFc-10" style="rounded=0;orthogonalLoop=1;jettySize=auto;html=1;exitX=1;exitY=0.5;exitDx=0;exitDy=0;entryX=0;entryY=0.5;entryDx=0;entryDy=0;" edge="1" parent="1" source="gzxq4vjlK3jYFN7eGjFc-1" target="gzxq4vjlK3jYFN7eGjFc-3">
          <mxGeometry relative="1" as="geometry" />
        </mxCell>
        <mxCell id="gzxq4vjlK3jYFN7eGjFc-14" style="rounded=0;orthogonalLoop=1;jettySize=auto;html=1;exitX=1;exitY=1;exitDx=0;exitDy=0;entryX=0;entryY=0;entryDx=0;entryDy=0;" edge="1" parent="1" source="gzxq4vjlK3jYFN7eGjFc-1" target="gzxq4vjlK3jYFN7eGjFc-5">
          <mxGeometry relative="1" as="geometry" />
        </mxCell>
        <mxCell id="gzxq4vjlK3jYFN7eGjFc-30" style="rounded=0;orthogonalLoop=1;jettySize=auto;html=1;exitX=0;exitY=0.5;exitDx=0;exitDy=0;entryX=0.5;entryY=1;entryDx=0;entryDy=0;" edge="1" parent="1" source="gzxq4vjlK3jYFN7eGjFc-1" target="gzxq4vjlK3jYFN7eGjFc-21">
          <mxGeometry relative="1" as="geometry" />
        </mxCell>
        <mxCell id="gzxq4vjlK3jYFN7eGjFc-1" value="A" style="ellipse;whiteSpace=wrap;html=1;aspect=fixed;" vertex="1" parent="1">
          <mxGeometry x="350" y="870" width="30" height="30" as="geometry" />
        </mxCell>
        <mxCell id="gzxq4vjlK3jYFN7eGjFc-6" style="rounded=0;orthogonalLoop=1;jettySize=auto;html=1;exitX=0;exitY=0.5;exitDx=0;exitDy=0;entryX=1;entryY=0;entryDx=0;entryDy=0;" edge="1" parent="1" source="gzxq4vjlK3jYFN7eGjFc-2" target="gzxq4vjlK3jYFN7eGjFc-1">
          <mxGeometry relative="1" as="geometry" />
        </mxCell>
        <mxCell id="gzxq4vjlK3jYFN7eGjFc-28" style="rounded=0;orthogonalLoop=1;jettySize=auto;html=1;exitX=0;exitY=0;exitDx=0;exitDy=0;entryX=1;entryY=0.5;entryDx=0;entryDy=0;" edge="1" parent="1" source="gzxq4vjlK3jYFN7eGjFc-2" target="gzxq4vjlK3jYFN7eGjFc-21">
          <mxGeometry relative="1" as="geometry" />
        </mxCell>
        <mxCell id="gzxq4vjlK3jYFN7eGjFc-2" value="B" style="ellipse;whiteSpace=wrap;html=1;aspect=fixed;" vertex="1" parent="1">
          <mxGeometry x="420" y="830" width="30" height="30" as="geometry" />
        </mxCell>
        <mxCell id="gzxq4vjlK3jYFN7eGjFc-8" style="rounded=0;orthogonalLoop=1;jettySize=auto;html=1;exitX=0;exitY=0;exitDx=0;exitDy=0;entryX=1;entryY=0.5;entryDx=0;entryDy=0;" edge="1" parent="1" source="gzxq4vjlK3jYFN7eGjFc-3" target="gzxq4vjlK3jYFN7eGjFc-2">
          <mxGeometry relative="1" as="geometry" />
        </mxCell>
        <mxCell id="gzxq4vjlK3jYFN7eGjFc-3" value="C" style="ellipse;whiteSpace=wrap;html=1;aspect=fixed;" vertex="1" parent="1">
          <mxGeometry x="490" y="870" width="30" height="30" as="geometry" />
        </mxCell>
        <mxCell id="gzxq4vjlK3jYFN7eGjFc-16" style="rounded=0;orthogonalLoop=1;jettySize=auto;html=1;exitX=0.5;exitY=0;exitDx=0;exitDy=0;entryX=0.5;entryY=1;entryDx=0;entryDy=0;" edge="1" parent="1" source="gzxq4vjlK3jYFN7eGjFc-4" target="gzxq4vjlK3jYFN7eGjFc-1">
          <mxGeometry relative="1" as="geometry" />
        </mxCell>
        <mxCell id="gzxq4vjlK3jYFN7eGjFc-18" style="rounded=0;orthogonalLoop=1;jettySize=auto;html=1;exitX=1;exitY=0.5;exitDx=0;exitDy=0;entryX=0;entryY=1;entryDx=0;entryDy=0;" edge="1" parent="1" source="gzxq4vjlK3jYFN7eGjFc-4" target="gzxq4vjlK3jYFN7eGjFc-5">
          <mxGeometry relative="1" as="geometry" />
        </mxCell>
        <mxCell id="gzxq4vjlK3jYFN7eGjFc-4" value="E" style="ellipse;whiteSpace=wrap;html=1;aspect=fixed;" vertex="1" parent="1">
          <mxGeometry x="340" y="950" width="30" height="30" as="geometry" />
        </mxCell>
        <mxCell id="gzxq4vjlK3jYFN7eGjFc-12" style="rounded=0;orthogonalLoop=1;jettySize=auto;html=1;exitX=1;exitY=0.5;exitDx=0;exitDy=0;entryX=0;entryY=1;entryDx=0;entryDy=0;" edge="1" parent="1" source="gzxq4vjlK3jYFN7eGjFc-5" target="gzxq4vjlK3jYFN7eGjFc-3">
          <mxGeometry relative="1" as="geometry" />
        </mxCell>
        <mxCell id="gzxq4vjlK3jYFN7eGjFc-5" value="D" style="ellipse;whiteSpace=wrap;html=1;aspect=fixed;" vertex="1" parent="1">
          <mxGeometry x="430" y="920" width="30" height="30" as="geometry" />
        </mxCell>
        <mxCell id="gzxq4vjlK3jYFN7eGjFc-7" value="2" style="text;html=1;align=center;verticalAlign=middle;resizable=0;points=[];autosize=1;strokeColor=none;fillColor=none;" vertex="1" parent="1">
          <mxGeometry x="375" y="838" width="30" height="30" as="geometry" />
        </mxCell>
        <mxCell id="gzxq4vjlK3jYFN7eGjFc-9" value="8" style="text;html=1;align=center;verticalAlign=middle;resizable=0;points=[];autosize=1;strokeColor=none;fillColor=none;" vertex="1" parent="1">
          <mxGeometry x="460" y="838" width="30" height="30" as="geometry" />
        </mxCell>
        <mxCell id="gzxq4vjlK3jYFN7eGjFc-11" value="4" style="text;html=1;align=center;verticalAlign=middle;resizable=0;points=[];autosize=1;strokeColor=none;fillColor=none;" vertex="1" parent="1">
          <mxGeometry x="420" y="860" width="30" height="30" as="geometry" />
        </mxCell>
        <mxCell id="gzxq4vjlK3jYFN7eGjFc-13" value="3" style="text;html=1;align=center;verticalAlign=middle;resizable=0;points=[];autosize=1;strokeColor=none;fillColor=none;" vertex="1" parent="1">
          <mxGeometry x="460" y="890" width="30" height="30" as="geometry" />
        </mxCell>
        <mxCell id="gzxq4vjlK3jYFN7eGjFc-15" value="5" style="text;html=1;align=center;verticalAlign=middle;resizable=0;points=[];autosize=1;strokeColor=none;fillColor=none;" vertex="1" parent="1">
          <mxGeometry x="380" y="900" width="30" height="30" as="geometry" />
        </mxCell>
        <mxCell id="gzxq4vjlK3jYFN7eGjFc-17" value="3" style="text;html=1;align=center;verticalAlign=middle;resizable=0;points=[];autosize=1;strokeColor=none;fillColor=none;" vertex="1" parent="1">
          <mxGeometry x="330" y="908" width="30" height="30" as="geometry" />
        </mxCell>
        <mxCell id="gzxq4vjlK3jYFN7eGjFc-19" value="3" style="text;html=1;align=center;verticalAlign=middle;resizable=0;points=[];autosize=1;strokeColor=none;fillColor=none;" vertex="1" parent="1">
          <mxGeometry x="395" y="948" width="30" height="30" as="geometry" />
        </mxCell>
        <mxCell id="gzxq4vjlK3jYFN7eGjFc-22" style="rounded=0;orthogonalLoop=1;jettySize=auto;html=1;exitX=0.5;exitY=0;exitDx=0;exitDy=0;entryX=0.5;entryY=1;entryDx=0;entryDy=0;" edge="1" parent="1" source="gzxq4vjlK3jYFN7eGjFc-20" target="gzxq4vjlK3jYFN7eGjFc-3">
          <mxGeometry relative="1" as="geometry" />
        </mxCell>
        <mxCell id="gzxq4vjlK3jYFN7eGjFc-24" style="rounded=0;orthogonalLoop=1;jettySize=auto;html=1;exitX=0;exitY=0.5;exitDx=0;exitDy=0;entryX=1;entryY=1;entryDx=0;entryDy=0;" edge="1" parent="1" source="gzxq4vjlK3jYFN7eGjFc-20" target="gzxq4vjlK3jYFN7eGjFc-5">
          <mxGeometry relative="1" as="geometry" />
        </mxCell>
        <mxCell id="gzxq4vjlK3jYFN7eGjFc-26" style="rounded=0;orthogonalLoop=1;jettySize=auto;html=1;exitX=0;exitY=1;exitDx=0;exitDy=0;entryX=1;entryY=1;entryDx=0;entryDy=0;" edge="1" parent="1" source="gzxq4vjlK3jYFN7eGjFc-20" target="gzxq4vjlK3jYFN7eGjFc-4">
          <mxGeometry relative="1" as="geometry" />
        </mxCell>
        <mxCell id="gzxq4vjlK3jYFN7eGjFc-20" value="s" style="ellipse;whiteSpace=wrap;html=1;aspect=fixed;" vertex="1" parent="1">
          <mxGeometry x="520" y="950" width="30" height="30" as="geometry" />
        </mxCell>
        <mxCell id="gzxq4vjlK3jYFN7eGjFc-21" value="t" style="ellipse;whiteSpace=wrap;html=1;aspect=fixed;" vertex="1" parent="1">
          <mxGeometry x="290" y="830" width="30" height="30" as="geometry" />
        </mxCell>
        <mxCell id="gzxq4vjlK3jYFN7eGjFc-23" value="8" style="text;html=1;align=center;verticalAlign=middle;resizable=0;points=[];autosize=1;strokeColor=none;fillColor=none;" vertex="1" parent="1">
          <mxGeometry x="520" y="918" width="30" height="30" as="geometry" />
        </mxCell>
        <mxCell id="gzxq4vjlK3jYFN7eGjFc-25" value="6" style="text;html=1;align=center;verticalAlign=middle;resizable=0;points=[];autosize=1;strokeColor=none;fillColor=none;" vertex="1" parent="1">
          <mxGeometry x="480" y="930" width="30" height="30" as="geometry" />
        </mxCell>
        <mxCell id="gzxq4vjlK3jYFN7eGjFc-27" value="1" style="text;html=1;align=center;verticalAlign=middle;resizable=0;points=[];autosize=1;strokeColor=none;fillColor=none;" vertex="1" parent="1">
          <mxGeometry x="435" y="968" width="30" height="30" as="geometry" />
        </mxCell>
        <mxCell id="gzxq4vjlK3jYFN7eGjFc-29" value="9" style="text;html=1;align=center;verticalAlign=middle;resizable=0;points=[];autosize=1;strokeColor=none;fillColor=none;" vertex="1" parent="1">
          <mxGeometry x="345" y="820" width="30" height="30" as="geometry" />
        </mxCell>
        <mxCell id="gzxq4vjlK3jYFN7eGjFc-31" value="6" style="text;html=1;align=center;verticalAlign=middle;resizable=0;points=[];autosize=1;strokeColor=none;fillColor=none;" vertex="1" parent="1">
          <mxGeometry x="320" y="850" width="30" height="30" as="geometry" />
        </mxCell>
      </root>
    </mxGraphModel>
  </diagram>
</mxfile>
